<svg xmlns="http://www.w3.org/2000/svg" width="512" height="512" viewBox="0 0 512 512" style="overflow: visible;" data-bbox="36.072 58.091 439.856 395.818"><rect data-uid="o_f9ib8jk7d_197" data-fl-background="" x="0" y="0" width="512" height="512" fill="#ffffff"></rect><defs transform="matrix(0.9413585446623289, 0, 0, 0.9413585446623289, 15.012217394789987, 15.012208334200404)" data-uid="o_f9ib8jk7d_9"><linearGradient x1="5.84%" y1="26.47%" x2="94.16%" y2="73.53%" id="g_-776190882_4" gradientUnits="objectBoundingBox" data-uid="o_f9ib8jk7d_116"><stop offset="0%" stop-color="rgb(76, 34, 217)" stop-opacity="1.00" data-uid="o_f9ib8jk7d_117"></stop><stop offset="100%" stop-color="rgb(255, 19, 56)" stop-opacity="1.00" data-uid="o_f9ib8jk7d_118"></stop></linearGradient></defs><g data-uid="o_f9ib8jk7d_61" fill="url(#g_-776190882_4)" transform="matrix(1.2595186036190011, 0, 0, 1.2595186036190011, -65.68429612745159, -41.3926917631064)"><path d="M124-0.242c138.623 0 251 112.376 251 251c0 138.623-112.377 251-251 251" transform="matrix(0.18039052501338043, 0.18020571444786723, -0.18020571444786723, 0.18039052501338043, 343.0670291822495, 154.63509905892056)" data-uid="o_f9ib8jk7d_47" fill="url(#g_-776190882_4)"></path><path d="M124-0.242c138.623 0 251 112.376 251 251c0 138.623-112.377 251-251 251" transform="matrix(-0.18020747799314715, 0.18038876325763387, -0.18038876325763387, -0.18020747799314715, 258.13737585822616, 245.035234590347)" data-uid="o_f9ib8jk7d_49" fill="url(#g_-776190882_4)"></path><path transform="matrix(-0.08562800053732118, 0.000011590796884974016, -0.00001589251977064839, -0.1174073452382407, 262.9721444740818, 239.54055943075792)" data-type="polygon" d="M88.385 8L0.391 160.359L176.379 160.359Z" data-uid="o_f9ib8jk7d_57" fill="url(#g_-776190882_4)"></path></g></svg>