<svg xmlns="http://www.w3.org/2000/svg" width="512" height="512" viewBox="0 0 512 512" style="overflow: visible;" data-bbox="36.072 58.091 439.856 395.818"><defs transform="matrix(0.9413585446623289, 0, 0, 0.9413585446623289, 15.012217394789987, 15.012208334200404)" data-uid="o_f9ib8jk7d_9"><linearGradient x1="5.84%" y1="26.47%" x2="94.16%" y2="73.53%" id="g_-602539202_11" gradientUnits="objectBoundingBox" data-uid="o_f9ib8jk7d_167"><stop offset="0%" stop-color="rgb(76, 34, 217)" stop-opacity="1.00" data-uid="o_f9ib8jk7d_168" data-darkreader-inline-stopcolor="" style="--darkreader-inline-stopcolor: #46299e;"></stop><stop offset="100%" stop-color="rgb(176, 9, 35)" stop-opacity="1.00" data-uid="o_f9ib8jk7d_169" data-darkreader-inline-stopcolor="" style="--darkreader-inline-stopcolor: #851827;"></stop></linearGradient><linearGradient x1="5.84%" y1="26.47%" x2="94.16%" y2="73.53%" id="g_-601558824_12" gradientUnits="objectBoundingBox" data-uid="o_f9ib8jk7d_182"><stop offset="0%" stop-color="rgb(76, 34, 217)" stop-opacity="1.00" data-uid="o_f9ib8jk7d_183" data-darkreader-inline-stopcolor="" style="--darkreader-inline-stopcolor: #46299e;"></stop><stop offset="100%" stop-color="rgb(255, 19, 56)" stop-opacity="1.00" data-uid="o_f9ib8jk7d_184" data-darkreader-inline-stopcolor="" style="--darkreader-inline-stopcolor: #b1142a;"></stop></linearGradient><linearGradient x1="18.51%" y1="88.86%" x2="81.49%" y2="11.14%" id="g_-575841384_14" gradientUnits="objectBoundingBox" data-uid="o_f9ib8jk7d_194"><stop offset="0%" stop-color="rgb(76, 34, 217)" stop-opacity="1.00" data-uid="o_f9ib8jk7d_195" data-darkreader-inline-stopcolor="" style="--darkreader-inline-stopcolor: #46299e;"></stop><stop offset="100%" stop-color="rgb(169, 19, 255)" stop-opacity="1.00" data-uid="o_f9ib8jk7d_196" data-darkreader-inline-stopcolor="" style="--darkreader-inline-stopcolor: #7814ae;"></stop></linearGradient></defs><path text="DareDream" fill="url(#g_-602539202_11)" space="preserve" text-anchor="middle" offset="0.5" font-scale="contain" font-size="48" font-family="Lato" transform="matrix(1.719590940977794, 0, 0, 1.719590940977794, 255.28293089247876, 347.6538456297018)" data-fl-textpath="" font-style="normal" font-weight="700" letter-spacing="0" stroke-width="1" stroke="none" data-uid="o_f9ib8jk7d_36" d="M-92.16-17.35L-92.16-17.35Q-92.16-13.54 -93.43-10.34Q-94.7-7.15 -97.01-4.85Q-99.31-2.54 -102.55-1.27Q-105.79 0 -109.73 0L-109.73 0L-122.98 0L-122.98-34.7L-109.73-34.7Q-105.79-34.7 -102.55-33.42Q-99.31-32.14 -97.01-29.84Q-94.7-27.55 -93.43-24.36Q-92.16-21.17 -92.16-17.35ZM-98.76-17.35L-98.76-17.35Q-98.76-20.21 -99.53-22.48Q-100.3-24.74 -101.71-26.32Q-103.13-27.89 -105.16-28.73Q-107.18-29.57 -109.73-29.57L-109.73-29.57L-116.47-29.57L-116.47-5.14L-109.73-5.14Q-107.18-5.14 -105.16-5.98Q-103.13-6.82 -101.71-8.39Q-100.3-9.96 -99.53-12.23Q-98.76-14.5 -98.76-17.35ZM-68.14-15.55L-68.14 0L-70.8 0Q-71.64 0 -72.12-0.25Q-72.6-0.5 -72.84-1.27L-72.84-1.27L-73.37-3.02Q-74.3-2.18 -75.2-1.55Q-76.1-0.91 -77.06-0.48Q-78.02-0.05 -79.1 0.17Q-80.18 0.38 -81.5 0.38L-81.5 0.38Q-83.06 0.38 -84.38-0.04Q-85.7-0.46 -86.65-1.3Q-87.6-2.14 -88.13-3.38Q-88.66-4.63 -88.66-6.29L-88.66-6.29Q-88.66-7.68 -87.92-9.04Q-87.19-10.39 -85.49-11.48Q-83.78-12.58 -80.95-13.3Q-78.12-14.02 -73.92-14.11L-73.92-14.11L-73.92-15.55Q-73.92-18.02 -74.96-19.21Q-76.01-20.4 -78-20.4L-78-20.4Q-79.44-20.4 -80.4-20.06Q-81.36-19.73 -82.07-19.31Q-82.78-18.89 -83.38-18.55Q-83.98-18.22 -84.7-18.22L-84.7-18.22Q-85.3-18.22 -85.73-18.53Q-86.16-18.84 -86.42-19.3L-86.42-19.3L-87.5-21.19Q-83.26-25.08 -77.26-25.08L-77.26-25.08Q-75.1-25.08 -73.4-24.37Q-71.71-23.66 -70.54-22.4Q-69.36-21.14 -68.75-19.39Q-68.14-17.64 -68.14-15.55L-68.14-15.55ZM-79.66-3.7L-79.66-3.7Q-78.74-3.7 -77.98-3.86Q-77.21-4.03 -76.52-4.37Q-75.84-4.7 -75.2-5.2Q-74.57-5.69 -73.92-6.36L-73.92-6.36L-73.92-10.51Q-76.51-10.39 -78.25-10.07Q-79.99-9.74 -81.05-9.24Q-82.1-8.74 -82.55-8.06Q-82.99-7.39 -82.99-6.6L-82.99-6.6Q-82.99-5.04 -82.07-4.37Q-81.14-3.7 -79.66-3.7ZM-56.372 0L-62.302 0L-62.302-24.62L-58.822-24.62Q-57.912-24.62 -57.552-24.29Q-57.192-23.95 -57.072-23.14L-57.072-23.14L-56.712-20.16Q-55.392-22.44 -53.612-23.76Q-51.842-25.08 -49.632-25.08L-49.632-25.08Q-47.812-25.08 -46.612-24.24L-46.612-24.24L-47.372-19.8Q-47.452-19.37 -47.692-19.19Q-47.932-19.01 -48.332-19.01L-48.332-19.01Q-48.692-19.01 -49.322-19.18Q-49.942-19.34 -50.972-19.34L-50.972-19.34Q-52.822-19.34 -54.142-18.32Q-55.462-17.3 -56.372-15.34L-56.372-15.34L-56.372 0ZM-32.524-25.01L-32.524-25.01Q-30.194-25.01 -28.234-24.26Q-26.284-23.52 -24.864-22.09Q-23.444-20.66 -22.654-18.59Q-21.864-16.51 -21.864-13.85L-21.864-13.85Q-21.864-13.18 -21.924-12.73Q-21.984-12.29 -22.144-12.04Q-22.294-11.78 -22.564-11.68Q-22.824-11.57 -23.234-11.57L-23.234-11.57L-38.444-11.57Q-38.184-7.78 -36.404-6Q-34.634-4.22 -31.704-4.22L-31.704-4.22Q-30.264-4.22 -29.224-4.56Q-28.174-4.9 -27.394-5.3Q-26.614-5.71 -26.024-6.05Q-25.444-6.38 -24.884-6.38L-24.884-6.38Q-24.524-6.38 -24.264-6.24Q-24.004-6.1 -23.804-5.83L-23.804-5.83L-22.084-3.67Q-23.064-2.52 -24.284-1.74Q-25.514-0.96 -26.844-0.49Q-28.174-0.02 -29.554 0.17Q-30.934 0.36 -32.234 0.36L-32.234 0.36Q-34.804 0.36 -37.004-0.49Q-39.214-1.34 -40.844-3.01Q-42.484-4.68 -43.414-7.14Q-44.354-9.6 -44.354-12.84L-44.354-12.84Q-44.354-15.36 -43.534-17.58Q-42.724-19.8 -41.194-21.44Q-39.674-23.09 -37.474-24.05Q-35.284-25.01 -32.524-25.01ZM-32.404-20.76L-32.404-20.76Q-34.994-20.76 -36.454-19.3Q-37.924-17.83 -38.324-15.14L-38.324-15.14L-27.194-15.14Q-27.194-16.3 -27.504-17.32Q-27.814-18.34 -28.464-19.1Q-29.114-19.87 -30.094-20.32Q-31.084-20.76 -32.404-20.76ZM 14.112-17.35L 14.112-17.35Q 14.112-13.54  12.842-10.34Q 11.572-7.15  9.262-4.85Q 6.962-2.54  3.722-1.27Q 0.482 0 -3.458 0L-3.458 0L-16.708 0L-16.708-34.7L-3.458-34.7Q 0.482-34.7  3.722-33.42Q 6.962-32.14  9.262-29.84Q 11.572-27.55  12.842-24.36Q 14.112-21.17  14.112-17.35ZM 7.512-17.35L 7.512-17.35Q 7.512-20.21  6.742-22.48Q 5.972-24.74  4.562-26.32Q 3.142-27.89  1.112-28.73Q-0.908-29.57 -3.458-29.57L-3.458-29.57L-10.198-29.57L-10.198-5.14L-3.458-5.14Q-0.908-5.14  1.112-5.98Q 3.142-6.82  4.562-8.39Q 5.972-9.96  6.742-12.23Q 7.512-14.5  7.512-17.35ZM 24.772 0L 18.842 0L 18.842-24.62L 22.322-24.62Q 23.232-24.62  23.592-24.29Q 23.952-23.95  24.072-23.14L 24.072-23.14L 24.432-20.16Q 25.752-22.44  27.532-23.76Q 29.302-25.08  31.512-25.08L 31.512-25.08Q 33.332-25.08  34.532-24.24L 34.532-24.24L 33.772-19.8Q 33.692-19.37  33.452-19.19Q 33.212-19.01  32.812-19.01L 32.812-19.01Q 32.452-19.01  31.822-19.18Q 31.202-19.34  30.172-19.34L 30.172-19.34Q 28.322-19.34  27.002-18.32Q 25.682-17.3  24.772-15.34L 24.772-15.34L 24.772 0ZM 48.62-25.01L 48.62-25.01Q 50.95-25.01  52.91-24.26Q 54.86-23.52  56.28-22.09Q 57.7-20.66  58.49-18.59Q 59.28-16.51  59.28-13.85L 59.28-13.85Q 59.28-13.18  59.22-12.73Q 59.16-12.29  59-12.04Q 58.85-11.78  58.58-11.68Q 58.32-11.57  57.91-11.57L 57.91-11.57L 42.7-11.57Q 42.96-7.78  44.74-6Q 46.51-4.22  49.44-4.22L 49.44-4.22Q 50.88-4.22  51.92-4.56Q 52.97-4.9  53.75-5.3Q 54.53-5.71  55.12-6.05Q 55.7-6.38  56.26-6.38L 56.26-6.38Q 56.62-6.38  56.88-6.24Q 57.14-6.1  57.34-5.83L 57.34-5.83L 59.06-3.67Q 58.08-2.52  56.86-1.74Q 55.63-0.96  54.3-0.49Q 52.97-0.02  51.59 0.17Q 50.21 0.36  48.91 0.36L 48.91 0.36Q 46.34 0.36  44.14-0.49Q 41.93-1.34  40.3-3.01Q 38.66-4.68  37.73-7.14Q 36.79-9.6  36.79-12.84L 36.79-12.84Q 36.79-15.36  37.61-17.58Q 38.42-19.8  39.95-21.44Q 41.47-23.09  43.67-24.05Q 45.86-25.01  48.62-25.01ZM 48.74-20.76L 48.74-20.76Q 46.15-20.76  44.69-19.3Q 43.22-17.83  42.82-15.14L 42.82-15.14L 53.95-15.14Q 53.95-16.3  53.64-17.32Q 53.33-18.34  52.68-19.1Q 52.03-19.87  51.05-20.32Q 50.06-20.76  48.74-20.76ZM 83.396-15.55L 83.396 0L 80.736 0Q 79.896 0  79.416-0.25Q 78.936-0.5  78.696-1.27L 78.696-1.27L 78.166-3.02Q 77.236-2.18  76.336-1.55Q 75.436-0.91  74.476-0.48Q 73.516-0.05  72.436 0.17Q 71.356 0.38  70.036 0.38L 70.036 0.38Q 68.476 0.38  67.156-0.04Q 65.836-0.46  64.886-1.3Q 63.936-2.14  63.406-3.38Q 62.876-4.63  62.876-6.29L 62.876-6.29Q 62.876-7.68  63.616-9.04Q 64.346-10.39  66.046-11.48Q 67.756-12.58  70.586-13.3Q 73.416-14.02  77.616-14.11L 77.616-14.11L 77.616-15.55Q 77.616-18.02  76.576-19.21Q 75.526-20.4  73.536-20.4L 73.536-20.4Q 72.096-20.4  71.136-20.06Q 70.176-19.73  69.466-19.31Q 68.756-18.89  68.156-18.55Q 67.556-18.22  66.836-18.22L 66.836-18.22Q 66.236-18.22  65.806-18.53Q 65.376-18.84  65.116-19.3L 65.116-19.3L 64.036-21.19Q 68.276-25.08  74.276-25.08L 74.276-25.08Q 76.436-25.08  78.136-24.37Q 79.826-23.66  80.996-22.4Q 82.176-21.14  82.786-19.39Q 83.396-17.64  83.396-15.55L 83.396-15.55ZM 71.876-3.7L 71.876-3.7Q 72.796-3.7  73.556-3.86Q 74.326-4.03  75.016-4.37Q 75.696-4.7  76.336-5.2Q 76.966-5.69  77.616-6.36L 77.616-6.36L 77.616-10.51Q 75.026-10.39  73.286-10.07Q 71.546-9.74  70.486-9.24Q 69.436-8.74  68.986-8.06Q 68.546-7.39  68.546-6.6L 68.546-6.6Q 68.546-5.04  69.466-4.37Q 70.396-3.7  71.876-3.7ZM 95.164 0L 89.234 0L 89.234-24.62L 92.854-24.62Q 94.004-24.62  94.364-23.54L 94.364-23.54L 94.754-21.72Q 95.404-22.44  96.104-23.04Q 96.814-23.64  97.624-24.07Q 98.424-24.5  99.344-24.76Q 100.274-25.01  101.374-25.01L 101.374-25.01Q 103.704-25.01  105.204-23.75Q 106.704-22.49  107.444-20.4L 107.444-20.4Q 108.024-21.62  108.884-22.5Q 109.754-23.38  110.784-23.93Q 111.814-24.48  112.984-24.74Q 114.144-25.01  115.324-25.01L 115.324-25.01Q 117.364-25.01  118.944-24.38Q 120.524-23.76  121.604-22.56Q 122.684-21.36  123.254-19.63Q 123.814-17.9  123.814-15.67L 123.814-15.67L 123.814 0L 117.884 0L 117.884-15.67Q 117.884-18.02  116.854-19.21Q 115.824-20.4  113.834-20.4L 113.834-20.4Q 112.924-20.4  112.144-20.09Q 111.364-19.78  110.774-19.19Q 110.184-18.6  109.844-17.71Q 109.514-16.82  109.514-15.67L 109.514-15.67L 109.514 0L 103.564 0L 103.564-15.67Q 103.564-18.14  102.564-19.27Q 101.564-20.4  99.624-20.4L 99.624-20.4Q 98.354-20.4  97.234-19.76Q 96.124-19.13  95.164-18.02L 95.164-18.02L 95.164 0Z"></path><path text="UNLIMITED" fill="url(#g_-575841384_14)" space="preserve" text-anchor="middle" offset="0.5" font-scale="contain" font-size="36" font-family="Lato" transform="matrix(0.6044411795307043, 0, 0, 0.6044411795307043, 257.14421231660907, 384.91679947791965)" font-style="normal" font-weight="700" letter-spacing="0" data-fl-textpath="" data-uid="o_f9ib8jk7d_37" d="M-85.432-3.91L-85.432-3.91Q-84.022-3.91 -82.912-4.37Q-81.812-4.84 -81.042-5.69Q-80.282-6.53 -79.872-7.74Q-79.472-8.95 -79.472-10.44L-79.472-10.44L-79.472-26.03L-74.632-26.03L-74.632-10.44Q-74.632-8.12 -75.372-6.15Q-76.122-4.18 -77.522-2.75Q-78.932-1.31 -80.932-0.51Q-82.922 0.29 -85.432 0.29L-85.432 0.29Q-87.932 0.29 -89.932-0.51Q-91.922-1.31 -93.322-2.75Q-94.712-4.18 -95.462-6.15Q-96.212-8.12 -96.212-10.44L-96.212-10.44L-96.212-26.03L-91.372-26.03L-91.372-10.46Q-91.372-8.96 -90.962-7.76Q-90.562-6.55 -89.802-5.7Q-89.042-4.84 -87.942-4.37Q-86.832-3.91 -85.432-3.91ZM-67.154-26.03L-67.154-26.03Q-66.834-26.03 -66.614-26Q-66.404-25.97 -66.234-25.89Q-66.064-25.81 -65.894-25.66Q-65.734-25.51 -65.534-25.25L-65.534-25.25L-51.874-7.85Q-51.944-8.48 -51.974-9.08Q-52.004-9.68 -52.004-10.21L-52.004-10.21L-52.004-26.03L-47.734-26.03L-47.734 0L-50.234 0Q-50.814 0 -51.194-0.18Q-51.574-0.36 -51.934-0.83L-51.934-0.83L-65.534-18.16Q-65.484-17.59 -65.454-17.02Q-65.434-16.45 -65.434-15.98L-65.434-15.98L-65.434 0L-69.694 0L-69.694-26.03L-67.154-26.03ZM-37.638-26.03L-37.638-4L-27.218-4L-27.218 0L-42.478 0L-42.478-26.03L-37.638-26.03ZM-18.416-26.03L-18.416 0L-23.276 0L-23.276-26.03L-18.416-26.03ZM 0.508-10.8L 0.508-10.8Q 0.808-10.22  1.068-9.6Q 1.328-8.98  1.588-8.35L 1.588-8.35Q 1.838-9  2.108-9.63Q 2.378-10.26  2.678-10.84L 2.678-10.84L 10.388-25.25Q 10.528-25.52  10.688-25.69Q 10.838-25.85  11.028-25.92Q 11.218-25.99  11.448-26.01Q 11.678-26.03  12.008-26.03L 12.008-26.03L 15.658-26.03L 15.658 0L 11.398 0L 11.398-16.81Q 11.398-17.28  11.418-17.84Q 11.448-18.4  11.498-18.97L 11.498-18.97L 3.638-4.21Q 3.368-3.71  2.938-3.43Q 2.498-3.15  1.928-3.15L 1.928-3.15L 1.258-3.15Q 0.688-3.15  0.248-3.43Q-0.182-3.71 -0.452-4.21L-0.452-4.21L-8.422-19.03Q-8.352-18.43 -8.322-17.87Q-8.302-17.3 -8.302-16.81L-8.302-16.81L-8.302 0L-12.562 0L-12.562-26.03L-8.912-26.03Q-8.582-26.03 -8.352-26.01Q-8.122-25.99 -7.932-25.92Q-7.742-25.85 -7.582-25.69Q-7.412-25.52 -7.272-25.25L-7.272-25.25L 0.508-10.8ZM 26.368-26.03L 26.368 0L 21.508 0L 21.508-26.03L 26.368-26.03ZM 30.022-26.03L 50.562-26.03L 50.562-22.05L 42.732-22.05L 42.732 0L 37.892 0L 37.892-22.05L 30.022-22.05L 30.022-26.03ZM 53.642-26.03L 70.052-26.03L 70.052-22.18L 58.522-22.18L 58.522-14.96L 67.612-14.96L 67.612-11.23L 58.522-11.23L 58.522-3.87L 70.052-3.87L 70.052 0L 53.642 0L 53.642-26.03ZM 97.362-13.01L 97.362-13.01Q 97.362-10.15  96.412-7.76Q 95.452-5.36  93.722-3.64Q 92.002-1.91  89.572-0.95Q 87.142 0  84.182 0L 84.182 0L 74.252 0L 74.252-26.03L 84.182-26.03Q 87.142-26.03  89.572-25.07Q 92.002-24.1  93.722-22.38Q 95.452-20.66  96.412-18.27Q 97.362-15.88  97.362-13.01ZM 92.412-13.01L 92.412-13.01Q 92.412-15.16  91.832-16.86Q 91.262-18.56  90.202-19.74Q 89.132-20.92  87.612-21.55Q 86.092-22.18  84.182-22.18L 84.182-22.18L 79.132-22.18L 79.132-3.85L 84.182-3.85Q 86.092-3.85  87.612-4.48Q 89.132-5.11  90.202-6.29Q 91.262-7.47  91.832-9.17Q 92.412-10.87  92.412-13.01Z"></path><g data-uid="o_f9ib8jk7d_61" fill="url(#g_-601558824_12)" transform="matrix(1, 0, 0, 1, 0.5974238068819488, -50.02904111431735)"><path d="M124-0.242c138.623 0 251 112.376 251 251c0 138.623-112.377 251-251 251" transform="matrix(0.18039052501338043, 0.18020571444786723, -0.18020571444786723, 0.18039052501338043, 343.0670291822495, 154.63509905892056)" data-uid="o_f9ib8jk7d_47" fill="url(#g_-601558824_12)"></path><path d="M124-0.242c138.623 0 251 112.376 251 251c0 138.623-112.377 251-251 251" transform="matrix(-0.18020747799314715, 0.18038876325763387, -0.18038876325763387, -0.18020747799314715, 258.13737585822616, 245.035234590347)" data-uid="o_f9ib8jk7d_49" fill="url(#g_-601558824_12)"></path><path transform="matrix(-0.08562800053732118, 0.000011590796884974016, -0.00001589251977064839, -0.1174073452382407, 262.9721444740818, 239.54055943075792)" data-type="polygon" d="M88.385 8L0.391 160.359L176.379 160.359Z" data-uid="o_f9ib8jk7d_57" fill="url(#g_-601558824_12)"></path></g></svg>