<svg xmlns="http://www.w3.org/2000/svg" width="512" height="512" viewBox="0 0 512 512" style="overflow: visible;" data-bbox="105.63382474279086 192.00021409930338 300.7391179596007 205.88140130745518"><rect data-uid="o_f9ib85i2f_6" data-fl-background="" x="0" y="0" width="512" height="512" fill="#ff5252"></rect><path text="DareDream" fill="#edf2f6" space="preserve" text-anchor="middle" offset="0.5" font-scale="contain" font-size="48" font-family="Fredoka One" transform="matrix(1.131406307220459, 0, 0, 1.131406307220459, 256.00225830078125, 397.1801452636719)" data-fl-textpath="" font-weight="400" font-style="normal" letter-spacing="1" data-uid="o_f9ib85i2f_7" d="M-128.634-35.23L-128.634-35.23L-119.754-35.18Q-112.794-35.18 -107.514-30.17Q-102.234-25.15 -102.234-17.83Q-102.234-10.51 -107.394-5.28Q-112.554-0.05 -119.894-0.05L-119.894-0.05L-128.684-0.05Q-131.604-0.05 -132.324-1.25L-132.324-1.25Q-132.904-2.26 -132.904-4.32L-132.904-4.32L-132.904-31.01Q-132.904-32.16 -132.834-32.69Q-132.764-33.22 -132.374-33.94L-132.374-33.94Q-131.704-35.23 -128.634-35.23ZM-119.754-8.54Q-116.294-8.54 -113.514-11.11Q-110.724-13.68 -110.724-17.57Q-110.724-21.46 -113.444-24.07Q-116.154-26.69 -119.804-26.69L-119.804-26.69L-124.404-26.69L-124.404-8.54L-119.754-8.54ZM-81.692-22.61L-81.692-22.61Q-81.412-25.3 -77.902-25.3L-77.902-25.3Q-76.032-25.3 -75.122-25.01Q-74.212-24.72 -73.852-24Q-73.492-23.28 -73.412-22.73Q-73.342-22.18 -73.342-21.07L-73.342-21.07L-73.342-4.27Q-73.342-3.17 -73.412-2.62Q-73.492-2.06 -73.822-1.34L-73.822-1.34Q-74.492-0.1 -77.112-0.1Q-79.732-0.1 -80.612-0.74Q-81.502-1.39 -81.652-2.64L-81.652-2.64Q-83.422-0.1 -87.572-0.1Q-91.732-0.1 -95.282-3.89Q-98.832-7.68 -98.832-12.7Q-98.832-17.71 -95.252-21.48Q-91.682-25.25 -87.412-25.25L-87.412-25.25Q-85.772-25.25 -84.432-24.67Q-83.092-24.1 -82.562-23.59Q-82.032-23.09 -81.692-22.61ZM-90.432-12.62Q-90.432-11.04 -89.182-9.77Q-87.932-8.5 -86.162-8.5Q-84.382-8.5 -83.212-9.79Q-82.032-11.09 -82.032-12.65Q-82.032-14.21 -83.162-15.55Q-84.292-16.9 -86.182-16.9Q-88.082-16.9 -89.252-15.55Q-90.432-14.21 -90.432-12.62ZM-51.324-25.01Q-50.404-24.72 -49.804-24.02Q-49.204-23.33 -49.204-21.79Q-49.204-20.26 -50.124-18.43Q-51.034-16.61 -52.764-16.61L-52.764-16.61Q-53.624-16.61 -54.414-16.99Q-55.204-17.38 -56.504-17.38Q-57.804-17.38 -58.924-16.46Q-60.054-15.55 -60.054-14.26L-60.054-14.26L-60.054-4.18Q-60.054-3.07 -60.124-2.52Q-60.204-1.97 -60.584-1.25L-60.584-1.25Q-61.304 0 -64.324 0L-64.324 0Q-66.634 0 -67.644-0.82L-67.644-0.82Q-68.404-1.49 -68.504-2.88L-68.504-2.88Q-68.504-3.36 -68.504-4.27L-68.504-4.27L-68.504-21.12Q-68.504-22.22 -68.434-22.78Q-68.364-23.33 -68.024-24L-68.024-24Q-67.354-25.3 -64.284-25.3L-64.284-25.3Q-61.404-25.3 -60.684-24.19L-60.684-24.19Q-60.154-23.42 -60.154-22.61L-60.154-22.61Q-59.914-22.94 -59.454-23.42Q-59.004-23.9 -57.514-24.72Q-56.024-25.54 -54.894-25.54Q-53.764-25.54 -53.004-25.42Q-52.234-25.3 -51.324-25.01ZM-22.628-15.67Q-22.628-12.72 -24.088-11.3Q-25.548-9.89 -27.328-9.89L-27.328-9.89L-38.708-9.89Q-38.708-8.54 -37.118-7.63Q-35.538-6.72 -33.948-6.72L-33.948-6.72Q-31.168-6.72 -29.588-7.3L-29.588-7.3L-29.058-7.49Q-27.908-8.02 -27.138-8.02L-27.138-8.02Q-25.598-8.02 -24.498-5.86L-24.498-5.86Q-23.868-4.56 -23.868-3.65L-23.868-3.65Q-23.868 0.62 -34.098 0.62L-34.098 0.62Q-37.648 0.62 -40.408-0.6Q-43.168-1.82 -44.708-3.84L-44.708-3.84Q-47.728-7.73 -47.728-12.53L-47.728-12.53Q-47.728-18.58 -43.818-22.2Q-39.908-25.82 -34.048-25.82L-34.048-25.82Q-27.378-25.82 -24.258-21.12L-24.258-21.12Q-22.628-18.62 -22.628-15.67ZM-38.798-14.26L-32.748-14.26Q-30.928-14.26 -30.928-15.79L-30.928-15.79Q-30.928-16.9 -31.768-17.57Q-32.608-18.24 -34.168-18.24Q-35.728-18.24 -37.268-16.97Q-38.798-15.7 -38.798-14.26L-38.798-14.26ZM-14.234-35.23L-14.234-35.23L-5.354-35.18Q 1.606-35.18  6.886-30.17Q 12.166-25.15  12.166-17.83Q 12.166-10.51  7.006-5.28Q 1.846-0.05 -5.494-0.05L-5.494-0.05L-14.284-0.05Q-17.204-0.05 -17.924-1.25L-17.924-1.25Q-18.504-2.26 -18.504-4.32L-18.504-4.32L-18.504-31.01Q-18.504-32.16 -18.434-32.69Q-18.364-33.22 -17.974-33.94L-17.974-33.94Q-17.304-35.23 -14.234-35.23ZM-5.354-8.54Q-1.894-8.54  0.886-11.11Q 3.676-13.68  3.676-17.57Q 3.676-21.46  0.956-24.07Q-1.754-26.69 -5.404-26.69L-5.404-26.69L-10.004-26.69L-10.004-8.54L-5.354-8.54ZM 33.468-25.01Q 34.388-24.72  34.988-24.02Q 35.588-23.33  35.588-21.79Q 35.588-20.26  34.668-18.43Q 33.758-16.61  32.028-16.61L 32.028-16.61Q 31.168-16.61  30.378-16.99Q 29.588-17.38  28.288-17.38Q 26.988-17.38  25.868-16.46Q 24.738-15.55  24.738-14.26L 24.738-14.26L 24.738-4.18Q 24.738-3.07  24.668-2.52Q 24.588-1.97  24.208-1.25L 24.208-1.25Q 23.488 0  20.468 0L 20.468 0Q 18.158 0  17.148-0.82L 17.148-0.82Q 16.388-1.49  16.288-2.88L 16.288-2.88Q 16.288-3.36  16.288-4.27L 16.288-4.27L 16.288-21.12Q 16.288-22.22  16.358-22.78Q 16.428-23.33  16.768-24L 16.768-24Q 17.438-25.3  20.508-25.3L 20.508-25.3Q 23.388-25.3  24.108-24.19L 24.108-24.19Q 24.638-23.42  24.638-22.61L 24.638-22.61Q 24.878-22.94  25.338-23.42Q 25.788-23.9  27.278-24.72Q 28.768-25.54  29.898-25.54Q 31.028-25.54  31.788-25.42Q 32.558-25.3  33.468-25.01ZM 62.164-15.67Q 62.164-12.72  60.704-11.3Q 59.244-9.89  57.464-9.89L 57.464-9.89L 46.084-9.89Q 46.084-8.54  47.674-7.63Q 49.254-6.72  50.844-6.72L 50.844-6.72Q 53.624-6.72  55.204-7.3L 55.204-7.3L 55.734-7.49Q 56.884-8.02  57.654-8.02L 57.654-8.02Q 59.194-8.02  60.294-5.86L 60.294-5.86Q 60.924-4.56  60.924-3.65L 60.924-3.65Q 60.924 0.62  50.694 0.62L 50.694 0.62Q 47.144 0.62  44.384-0.6Q 41.624-1.82  40.084-3.84L 40.084-3.84Q 37.064-7.73  37.064-12.53L 37.064-12.53Q 37.064-18.58  40.974-22.2Q 44.884-25.82  50.744-25.82L 50.744-25.82Q 57.414-25.82  60.534-21.12L 60.534-21.12Q 62.164-18.62  62.164-15.67ZM 45.994-14.26L 52.044-14.26Q 53.864-14.26  53.864-15.79L 53.864-15.79Q 53.864-16.9  53.024-17.57Q 52.184-18.24  50.624-18.24Q 49.064-18.24  47.524-16.97Q 45.994-15.7  45.994-14.26L 45.994-14.26ZM 82.708-22.61L 82.708-22.61Q 82.988-25.3  86.498-25.3L 86.498-25.3Q 88.368-25.3  89.278-25.01Q 90.188-24.72  90.548-24Q 90.908-23.28  90.988-22.73Q 91.058-22.18  91.058-21.07L 91.058-21.07L 91.058-4.27Q 91.058-3.17  90.988-2.62Q 90.908-2.06  90.578-1.34L 90.578-1.34Q 89.908-0.1  87.288-0.1Q 84.668-0.1  83.788-0.74Q 82.898-1.39  82.748-2.64L 82.748-2.64Q 80.978-0.1  76.828-0.1Q 72.668-0.1  69.118-3.89Q 65.568-7.68  65.568-12.7Q 65.568-17.71  69.148-21.48Q 72.718-25.25  76.988-25.25L 76.988-25.25Q 78.628-25.25  79.968-24.67Q 81.308-24.1  81.838-23.59Q 82.368-23.09  82.708-22.61ZM 73.968-12.62Q 73.968-11.04  75.218-9.77Q 76.468-8.5  78.238-8.5Q 80.018-8.5  81.188-9.79Q 82.368-11.09  82.368-12.65Q 82.368-14.21  81.238-15.55Q 80.108-16.9  78.218-16.9Q 76.318-16.9  75.148-15.55Q 73.968-14.21  73.968-12.62ZM 104.156-21.94L 104.156-21.94Q 106.406-25.34  109.576-25.34L 109.576-25.34Q 114.476-25.34  116.876-21.17L 116.876-21.17Q 117.396-21.89  118.146-22.68Q 118.886-23.47  120.516-24.41Q 122.156-25.34  123.876-25.34L 123.876-25.34Q 127.716-25.34  130.316-22.39Q 132.906-19.44  132.906-12.62L 132.906-12.62L 132.906-4.22Q 132.906-3.12  132.836-2.57Q 132.756-2.02  132.376-1.3L 132.376-1.3Q 131.756 0  128.676 0L 128.676 0Q 125.656 0  124.986-1.34L 124.986-1.34Q 124.646-2.06  124.576-2.62Q 124.506-3.17  124.506-4.27L 124.506-4.27L 124.506-12.67Q 124.506-16.85  121.526-16.85L 121.526-16.85Q 119.846-16.85  119.246-15.74Q 118.646-14.64  118.646-12.62L 118.646-12.62L 118.646-4.22Q 118.646-3.07  118.576-2.54Q 118.506-2.02  118.116-1.3L 118.116-1.3Q 117.446 0  114.376 0L 114.376 0Q 111.356 0  110.676-1.34L 110.676-1.34Q 110.346-2.06  110.276-2.62Q 110.196-3.17  110.196-4.27L 110.196-4.27L 110.196-12.67Q 110.196-16.85  107.226-16.85L 107.226-16.85Q 104.346-16.85  104.346-12.67L 104.346-12.67L 104.346-4.18Q 104.346-3.07  104.276-2.52Q 104.196-1.97  103.816-1.25L 103.816-1.25Q 103.096 0  100.076 0L 100.076 0Q 97.046 0  96.376-1.3L 96.376-1.3Q 96.036-2.02  95.966-2.54Q 95.896-3.07  95.896-4.22L 95.896-4.22L 95.896-21.12Q 95.896-22.22  95.966-22.78Q 96.036-23.33  96.426-24L 96.426-24Q 97.146-25.3  99.836-25.3Q 102.516-25.3  103.336-24.43Q 104.156-23.57  104.156-21.94Z"></path><g transform="matrix(0.24999932944774628, 0, 0, 0.24999932944774628, 192.00035095214844, 192.00021362304688)" fill="#ffffff" data-uid="o_f9ib85i2f_8"><path d="m396.81 360.493c-5.521-3.963-13.02-3.72-18.271.599-63.524 52.21-157.645 48.57-216.925-10.707-59.198-59.196-62.999-153.301-10.707-216.923 4.316-5.251 4.561-12.749.598-18.271-3.964-5.523-11.144-7.689-17.501-5.28-27.55 10.439-52.153 26.367-73.124 47.339-81.096 81.089-81.254 212.626-.001 293.874 81.084 81.086 212.626 81.249 293.873 0 20.97-20.971 36.896-45.574 47.338-73.129 2.41-6.356.243-13.538-5.28-17.502zm-63.27 69.418c-68.988 68.99-181.578 69.872-251.446-.001-68.774-68.768-70.081-181.372 0-251.446 5.115-5.115 10.482-9.88 16.086-14.284-15.177 37.61-33.867 131.333 42.222 207.418 75.994 75.992 169.632 57.471 207.427 42.219-4.405 5.607-9.172 10.977-14.289 16.094z" transform="matrix(1, 0, 0, 1, 0, 0)" fill="#ffffff" data-uid="o_f9ib85i2f_9"></path><path d="m170.939 222.034c3.257 1.086 20.445 5.241 35.095 19.665 14.425 14.65 18.58 31.838 19.665 35.095 2.037 6.132 7.773 10.271 14.235 10.271s12.198-4.139 14.235-10.271c1.086-3.257 5.241-20.445 19.665-35.095 14.65-14.425 31.838-18.579 35.095-19.665 6.132-2.037 10.271-7.773 10.271-14.235s-4.139-12.198-10.271-14.235c-3.257-1.086-20.445-5.241-35.095-19.665-14.425-14.65-18.58-31.838-19.665-35.095-2.037-6.132-7.773-10.271-14.235-10.271s-12.198 4.139-14.235 10.271c-1.086 3.257-5.241 20.445-19.665 35.095-14.65 14.425-31.838 18.579-35.095 19.665-6.132 2.037-10.271 7.773-10.271 14.235s4.139 12.198 10.271 14.235zm68.995-42.488c7.466 11.164 17.09 20.788 28.252 28.253-11.166 7.467-20.786 17.088-28.253 28.254-7.465-11.164-17.088-20.787-28.251-28.253 11.166-7.467 20.786-17.088 28.252-28.254z" transform="matrix(1, 0, 0, 1, 0, 0)" fill="#ffffff" data-uid="o_f9ib85i2f_10"></path><path d="m299.473 93.501c3.257 1.086 20.445 5.241 35.095 19.665 14.425 14.65 18.579 31.838 19.665 35.095 2.037 6.132 7.773 10.271 14.235 10.271s12.198-4.139 14.235-10.271c1.086-3.257 5.241-20.445 19.665-35.095 14.65-14.425 31.838-18.579 35.095-19.665 6.132-2.037 10.271-7.773 10.271-14.235s-4.139-12.198-10.271-14.235c-3.257-1.086-20.445-5.241-35.095-19.665-14.425-14.65-18.58-31.838-19.665-35.095-2.037-6.132-7.773-10.271-14.234-10.271s-12.198 4.139-14.235 10.271c-1.086 3.257-5.24 20.445-19.665 35.095-14.65 14.425-31.838 18.579-35.095 19.665-6.132 2.037-10.271 7.773-10.271 14.235s4.138 12.198 10.27 14.235zm68.996-42.489c7.466 11.164 17.09 20.788 28.252 28.253-11.166 7.467-20.786 17.088-28.253 28.254-7.465-11.164-17.088-20.787-28.251-28.253 11.165-7.466 20.785-17.088 28.252-28.254z" transform="matrix(1, 0, 0, 1, 0, 0)" fill="#ffffff" data-uid="o_f9ib85i2f_11"></path><path d="m501.729 241.765c-3.257-1.086-20.445-5.241-35.095-19.665-14.425-14.65-18.58-31.838-19.665-35.095-2.037-6.132-7.773-10.271-14.235-10.271s-12.198 4.139-14.235 10.271c-1.086 3.257-5.24 20.445-19.665 35.095-14.65 14.425-31.838 18.579-35.095 19.665-6.132 2.037-10.271 7.773-10.271 14.235s4.139 12.198 10.271 14.235c3.257 1.086 20.445 5.241 35.095 19.665 14.425 14.65 18.579 31.838 19.665 35.095 2.037 6.132 7.773 10.271 14.235 10.271s12.198-4.139 14.235-10.271c1.086-3.257 5.241-20.445 19.665-35.095 14.65-14.425 31.838-18.579 35.095-19.665 6.132-2.037 10.271-7.773 10.271-14.235s-4.139-12.198-10.271-14.235zm-68.996 42.488c-7.465-11.164-17.088-20.787-28.251-28.253 11.166-7.467 20.786-17.088 28.252-28.254 7.466 11.164 17.09 20.788 28.252 28.253-11.166 7.467-20.786 17.088-28.253 28.254z" transform="matrix(1, 0, 0, 1, 0, 0)" fill="#ffffff" data-uid="o_f9ib85i2f_12"></path></g></svg>